# xmcd
#
# Track frame offsets:
# 150
# 18674
# 35219
# 51249
# 64917
# 79670
# 94294
# 110426
# 123527
# 143969
# 152909
# 167299
# 180898
# 202086
# 220725
#
# Disc length: 3148 seconds
#
#
# Revision: 0
# Processed by: cddbd v1.5.1PL0 Copyright (c) Steve Scherf et al.
# Submitted via: FreeRIP 2.30 
#
DISCID=d60c4a0f
DTITLE=Various Artist - White line flyers
DYEAR=2004
DGENRE=Blues
TTITLE0=Mercury Blues - Jimmy Thackery and the Drivers
TTITLE1=Gone To Hell - John Mooney
TTITLE2=Back On Track - Arthur Adams
TTITLE3=Cool Driver - Johnny Shines and Snooky Pryor
TTITLE4=Goodbye Misery - Deborah Coleman
TTITLE5=Magic Boogie - Magic Slim and the Teardrops
TTITLE6=On This Highway - Studebaker John
TTITLE7=Moving Back To Memphis - Chris Cain
TTITLE8=99 Miles - Hamilton Loomis
TTITLE9=I Won't Be There - Preacher Boy
TTITLE10=Highway Rider - Lloyd Jones
TTITLE11=Solid Gold Cadillac - Mitch Woods
TTITLE12=Rolling and Tumbling Around - Studebaker John
TTITLE13=Drive To Survive - Jimmy Thackery and the Drivers
TTITLE14=You're Gonna Miss Me - Big Bill Morganfield and Taj Mahal
EXTD=
EXTT0=
EXTT1=
EXTT2=
EXTT3=
EXTT4=
EXTT5=
EXTT6=
EXTT7=
EXTT8=
EXTT9=
EXTT10=
EXTT11=
EXTT12=
EXTT13=
EXTT14=
PLAYORDER=
